# xmcd
#
# Track frame offsets: 
#        150
#        14232
#        31137
#        42132
#        57160
#        73347
#        86820
#        102177
#        113692
#        127987
#        146342
#        159445
#
# Disc length: 2287 seconds
#
# Revision: 0
# Processed by: cddbd v1.5.2PL0 Copyright (c) Steve Scherf et al.
# Submitted via: ExactAudioCopy v0.95b4
#
DISCID=9e08ed0c
DTITLE=Soul Providers - Soul Tequila
DYEAR=1997
DGENRE=R&B
TTITLE0=Steam Train
TTITLE1=Gimme The Paw
TTITLE2=Huh! Funky Rudolph Strut
TTITLE3=Who Knows
TTITLE4=Switchblade
TTITLE5=Let A Man Do What He Wanna Do
TTITLE6=Soul Tequila
TTITLE7=The Landlord
TTITLE8=Lea's Rice Pudding
TTITLE9=(Hey Hey) Mister Brown
TTITLE10=Mr. Kesselman Pt. 1
TTITLE11=Mr. Kesselman [Instrumental]
EXTD=
EXTT0=
EXTT1=
EXTT2=
EXTT3=
EXTT4=
EXTT5=
EXTT6=
EXTT7=
EXTT8=
EXTT9=
EXTT10=
EXTT11=
PLAYORDER=
